<svg xmlns="http://www.w3.org/2000/svg" width="1080" height="1920" viewBox="0 0 1080 1920"><rect width="1080" height="1920" fill="#FBFBF8"/><filter id="g"><feTurbulence baseFrequency=".9" numOctaves="2" seed="4"/><feColorMatrix values="0 0 0 0 .3  0 0 0 0 .3  0 0 0 0 .3  0 0 0 .05 0"/></filter><rect width="1080" height="1920" filter="url(#g)"/>
<g fill="none" stroke="#D62839" stroke-width="6" stroke-linejoin="round">
<rect x="120" y="330" width="840" height="1330"/><line x1="120" y1="995.0" x2="960" y2="995.0"/><circle cx="540.0" cy="995.0" r="117.60000000000001"/>
<rect x="304.79999999999995" y="330" width="470.40000000000003" height="226.10000000000002"/><rect x="430.8" y="330" width="218.4" height="86.45"/>
<rect x="304.79999999999995" y="1433.9" width="470.40000000000003" height="226.10000000000002"/><rect x="430.8" y="1573.55" width="218.4" height="86.45"/>
<path d="M422.4 556.1 a117.60000000000001 117.60000000000001 0 0 0 235.20000000000002 0"/><path d="M422.4 1433.9 a117.60000000000001 117.60000000000001 0 0 1 235.20000000000002 0"/>
<path d="M120 360 a30 30 0 0 0 30 -30"/><path d="M960 360 a30 30 0 0 1 -30 -30"/><path d="M120 1630 a30 30 0 0 1 30 30"/><path d="M960 1630 a30 30 0 0 0 -30 30"/></g>
<rect x="397.2" y="286" width="285.6" height="44" fill="none" stroke="#D62839" stroke-width="6"/><rect x="397.2" y="1660" width="285.6" height="44" fill="none" stroke="#D62839" stroke-width="6"/>
<rect x="200" y="690" width="680" height="340" rx="30" fill="#FBFBF8" stroke="#D62839" stroke-width="6"/>
<text x="540" y="850" text-anchor="middle" font-size="118" fill="#141B24" font-family="'DejaVu Sans Condensed','DejaVu Sans',Arial,sans-serif" font-weight="800" letter-spacing="3">FÚTBOL</text><text x="540" y="962.1" text-anchor="middle" font-size="118" fill="#D62839" font-family="'DejaVu Sans Condensed','DejaVu Sans',Arial,sans-serif" font-weight="800" letter-spacing="3">MONEDAS</text>
<g transform="translate(330 1250)">
<ellipse cx="10.5" cy="14.700000000000001" rx="105" ry="105" fill="rgba(20,27,36,.22)"/>
<circle r="105" fill="#D8B255" stroke="#8E6C1E" stroke-width="4.2"/>
<clipPath id="ca"><circle r="97.65"/></clipPath>
<g clip-path="url(#ca)" transform="rotate(0)"><rect x="-105" y="-105" width="210" height="210" fill="#2A5BD7"/>
<rect x="-105.0" y="-105" width="21.0" height="210" fill="rgba(255,255,255,.88)"/><rect x="-63.0" y="-105" width="21.0" height="210" fill="rgba(255,255,255,.88)"/><rect x="-21.0" y="-105" width="21.0" height="210" fill="rgba(255,255,255,.88)"/><rect x="21.0" y="-105" width="21.0" height="210" fill="rgba(255,255,255,.88)"/><rect x="63.0" y="-105" width="21.0" height="210" fill="rgba(255,255,255,.88)"/><rect x="105.0" y="-105" width="21.0" height="210" fill="rgba(255,255,255,.88)"/>
<circle r="37.8" fill="#F2F5F9" stroke="#141B24" stroke-width="3.15"/></g>
<circle r="97.65" fill="none" stroke="rgba(255,255,255,.35)" stroke-width="3.15"/>
</g><g transform="translate(760 520)">
<ellipse cx="10.5" cy="14.700000000000001" rx="105" ry="105" fill="rgba(20,27,36,.22)"/>
<circle r="105" fill="#D8B255" stroke="#8E6C1E" stroke-width="4.2"/>
<clipPath id="cb"><circle r="97.65"/></clipPath>
<g clip-path="url(#cb)" transform="rotate(30)"><rect x="-105" y="-105" width="210" height="210" fill="#12855C"/>
<rect x="-105.0" y="-105" width="21.0" height="210" fill="rgba(255,255,255,.88)"/><rect x="-63.0" y="-105" width="21.0" height="210" fill="rgba(255,255,255,.88)"/><rect x="-21.0" y="-105" width="21.0" height="210" fill="rgba(255,255,255,.88)"/><rect x="21.0" y="-105" width="21.0" height="210" fill="rgba(255,255,255,.88)"/><rect x="63.0" y="-105" width="21.0" height="210" fill="rgba(255,255,255,.88)"/><rect x="105.0" y="-105" width="21.0" height="210" fill="rgba(255,255,255,.88)"/>
<circle r="37.8" fill="#F2F5F9" stroke="#141B24" stroke-width="3.15"/></g>
<circle r="97.65" fill="none" stroke="rgba(255,255,255,.35)" stroke-width="3.15"/>
</g><g transform="translate(560 1120)"><ellipse cx="5.5" cy="8.25" rx="55" ry="55" fill="rgba(20,27,36,.25)"/>
<circle r="55" fill="#C98354" stroke="#6E3B1B" stroke-width="3.3"/><circle r="42.9" fill="none" stroke="#6E3B1B" stroke-width="2.2" opacity=".5"/>
<text y="12.1" text-anchor="middle" font-size="34.1" fill="#4A2810" font-family="'DejaVu Sans Condensed','DejaVu Sans',Arial,sans-serif" font-weight="800">5c</text></g>
<path d="M560 1070 Q540 850 600 660" fill="none" stroke="#141B24" stroke-width="8" stroke-dasharray="3 24" stroke-linecap="round" opacity="0"/>
<text x="540" y="1840" text-anchor="middle" font-size="44" fill="#546171" font-family="'DejaVu Sans Condensed','DejaVu Sans',Arial,sans-serif" font-weight="800" letter-spacing="8">TOCA PARA EMPEZAR</text></svg>