<svg xmlns="http://www.w3.org/2000/svg" width="1080" height="1920" viewBox="0 0 1080 1920"><rect width="1080" height="1920" fill="#FBFBF8"/><filter id="g"><feTurbulence baseFrequency=".9" numOctaves="2" seed="4"/><feColorMatrix values="0 0 0 0 .3  0 0 0 0 .3  0 0 0 0 .3  0 0 0 .05 0"/></filter><rect width="1080" height="1920" filter="url(#g)"/>
<g fill="none" stroke="#D62839" stroke-width="5" stroke-linejoin="round">
<rect x="110" y="540" width="860" height="1200"/><line x1="110" y1="1140.0" x2="970" y2="1140.0"/><circle cx="540.0" cy="1140.0" r="120.4"/>
<rect x="299.2" y="540" width="481.6" height="204.00000000000003"/><rect x="428.2" y="540" width="223.6" height="78.0"/>
<rect x="299.2" y="1536.0" width="481.6" height="204.00000000000003"/><rect x="428.2" y="1662.0" width="223.6" height="78.0"/>
<path d="M419.6 744.0 a120.4 120.4 0 0 0 240.8 0"/><path d="M419.6 1536.0 a120.4 120.4 0 0 1 240.8 0"/>
<path d="M110 570 a30 30 0 0 0 30 -30"/><path d="M970 570 a30 30 0 0 1 -30 -30"/><path d="M110 1710 a30 30 0 0 1 30 30"/><path d="M970 1710 a30 30 0 0 0 -30 30"/></g>
<rect x="393.79999999999995" y="496" width="292.40000000000003" height="44" fill="none" stroke="#D62839" stroke-width="5"/><rect x="393.79999999999995" y="1740" width="292.40000000000003" height="44" fill="none" stroke="#D62839" stroke-width="5"/>
<text x="540" y="290" text-anchor="middle" font-size="170" fill="#141B24" font-family="'DejaVu Sans Condensed','DejaVu Sans',Arial,sans-serif" font-weight="800" letter-spacing="3">FÚTBOL</text><text x="540" y="451.5" text-anchor="middle" font-size="170" fill="#D62839" font-family="'DejaVu Sans Condensed','DejaVu Sans',Arial,sans-serif" font-weight="800" letter-spacing="3">MONEDAS</text>
<text x="540" y="560" text-anchor="middle" font-size="0" font-family="'DejaVu Sans Condensed','DejaVu Sans',Arial,sans-serif" font-weight="800"></text>
<g transform="translate(380 1420)">
<ellipse cx="12.0" cy="16.8" rx="120" ry="120" fill="rgba(20,27,36,.22)"/>
<circle r="120" fill="#D8B255" stroke="#8E6C1E" stroke-width="4.8"/>
<clipPath id="ca"><circle r="111.60000000000001"/></clipPath>
<g clip-path="url(#ca)" transform="rotate(10)"><rect x="-120" y="-120" width="240" height="240" fill="#2A5BD7"/>
<rect x="-120.0" y="-120" width="24.0" height="240" fill="rgba(255,255,255,.88)"/><rect x="-72.0" y="-120" width="24.0" height="240" fill="rgba(255,255,255,.88)"/><rect x="-24.0" y="-120" width="24.0" height="240" fill="rgba(255,255,255,.88)"/><rect x="24.0" y="-120" width="24.0" height="240" fill="rgba(255,255,255,.88)"/><rect x="72.0" y="-120" width="24.0" height="240" fill="rgba(255,255,255,.88)"/><rect x="120.0" y="-120" width="24.0" height="240" fill="rgba(255,255,255,.88)"/>
<circle r="43.199999999999996" fill="#F2F5F9" stroke="#141B24" stroke-width="3.5999999999999996"/></g>
<circle r="111.60000000000001" fill="none" stroke="rgba(255,255,255,.35)" stroke-width="3.5999999999999996"/>
</g><g transform="translate(120 1560) rotate(-28)"><rect x="0" y="-20" width="400" height="40" rx="8" fill="rgba(20,27,36,.2)" transform="translate(6 10)"/>
<rect x="0" y="-18" width="400" height="36" rx="8" fill="#DDBB86" stroke="#8A6236" stroke-width="3"/>
<rect x="168.0" y="-18" width="12" height="36" fill="rgba(110,70,30,.65)"/>
<path d="M188.0 -18 q30 18 0 36" fill="none" stroke="#8A6236" stroke-width="3" opacity=".6"/>
<path d="M14 -6 H160.0" stroke="#B48F5A" stroke-width="3" opacity=".6"/></g>
<path d="M520 1330 Q640 1180 730 1000" fill="none" stroke="#141B24" stroke-width="9" stroke-dasharray="4 26" stroke-linecap="round"/>
<g transform="translate(560 1300)"><ellipse cx="6.2" cy="9.299999999999999" rx="62" ry="62" fill="rgba(20,27,36,.25)"/>
<circle r="62" fill="#C98354" stroke="#6E3B1B" stroke-width="3.7199999999999998"/><circle r="48.36" fill="none" stroke="#6E3B1B" stroke-width="2.48" opacity=".5"/>
<text y="13.64" text-anchor="middle" font-size="38.44" fill="#4A2810" font-family="'DejaVu Sans Condensed','DejaVu Sans',Arial,sans-serif" font-weight="800">5c</text></g><g transform="translate(700 980)">
<ellipse cx="12.0" cy="16.8" rx="120" ry="120" fill="rgba(20,27,36,.22)"/>
<circle r="120" fill="#D8B255" stroke="#8E6C1E" stroke-width="4.8"/>
<clipPath id="cb"><circle r="111.60000000000001"/></clipPath>
<g clip-path="url(#cb)" transform="rotate(-20)"><rect x="-120" y="-120" width="240" height="240" fill="#12855C"/>
<rect x="-120.0" y="-120" width="24.0" height="240" fill="rgba(255,255,255,.88)"/><rect x="-72.0" y="-120" width="24.0" height="240" fill="rgba(255,255,255,.88)"/><rect x="-24.0" y="-120" width="24.0" height="240" fill="rgba(255,255,255,.88)"/><rect x="24.0" y="-120" width="24.0" height="240" fill="rgba(255,255,255,.88)"/><rect x="72.0" y="-120" width="24.0" height="240" fill="rgba(255,255,255,.88)"/><rect x="120.0" y="-120" width="24.0" height="240" fill="rgba(255,255,255,.88)"/>
<circle r="43.199999999999996" fill="#F2F5F9" stroke="#141B24" stroke-width="3.5999999999999996"/></g>
<circle r="111.60000000000001" fill="none" stroke="rgba(255,255,255,.35)" stroke-width="3.5999999999999996"/>
</g>
<text x="540" y="1860" text-anchor="middle" font-size="44" fill="#546171" font-family="'DejaVu Sans Condensed','DejaVu Sans',Arial,sans-serif" font-weight="800" letter-spacing="8">TOCA PARA EMPEZAR</text></svg>